<svg width="16" height="16" viewBox="0 0 16 16" fill="none" xmlns="http://www.w3.org/2000/svg">
<path d="M11.4307 11.0671L10.9152 11.8403C10.8123 11.9947 10.6762 12.1264 10.4969 12.1738C9.90946 12.329 8.3499 12.3991 5.9755 10.0247C3.60111 7.65029 3.67119 6.0907 3.82641 5.50326C3.8738 5.32393 4.00549 5.18784 4.15983 5.08495L4.93308 4.56945C5.50878 4.18565 5.66435 3.40782 5.28055 2.83212L3.82014 0.641504C3.48514 0.139007 2.83933 -0.0529745 2.28424 0.184924L1.62544 0.467265C1.12498 0.681747 0.716743 1.06668 0.473242 1.55368C0.269806 1.96055 0.112128 2.38901 0.090764 2.84341C0.0234382 4.27539 0.337435 7.80336 4.26713 11.7331C8.19682 15.6628 11.7248 15.9767 13.1568 15.9094C13.6112 15.888 14.0396 15.7304 14.4465 15.5269C14.9335 15.2834 15.3184 14.8752 15.5329 14.3747L15.8152 13.7159C16.0531 13.1608 15.8612 12.515 15.3587 12.18L13.168 10.7196C12.5923 10.3358 11.8145 10.4914 11.4307 11.0671Z" fill="#898989"/>
</svg>
